<svg width="14" height="14" viewBox="0 0 14 14" fill="none" xmlns="http://www.w3.org/2000/svg">
<path d="M12.8024 5.35444C12.7272 5.13394 12.5283 4.97819 12.2961 4.9601L8.97053 4.69585L7.53145 1.51027C7.43753 1.30085 7.22928 1.16669 7.00003 1.16669C6.77078 1.16669 6.56253 1.30085 6.46861 1.50969L5.02953 4.69585L1.70395 4.9601C1.47586 4.97819 1.27928 5.1281 1.2017 5.34335C1.12411 5.5586 1.17895 5.79952 1.34286 5.95935L3.80045 8.3551L2.93128 12.1188C2.87761 12.3515 2.97153 12.5936 3.16811 12.7295C3.26845 12.7984 3.38395 12.8334 3.50003 12.8334C3.61261 12.8334 3.72578 12.8007 3.82378 12.7354L7.00003 10.6179L10.1763 12.7354C10.3793 12.8707 10.6459 12.8654 10.8442 12.7214C11.0414 12.5773 11.1283 12.3247 11.0612 12.0902L9.99428 8.35685L12.6403 5.97569C12.8135 5.81935 12.8771 5.57552 12.8024 5.35444Z" fill="#FFBA08"/>
</svg>
